#N canvas 316 254 708 514 12;
#X obj 36 284 netsend -u -b;
#X obj 83 233 list prepend send;
#X obj 83 258 list trim;
#X obj 35 309 oscparse;
#X obj 35 364 route broadcast;
#X obj 36 337 list trim;
#N canvas 106 156 759 336 parse_boot_report 0;
#X obj 43 152 oscformat;
#X obj 42 82 list trim;
#X obj 42 177 oscparse;
#X obj 43 57 list prepend set;
#X obj 44 126 t b a;
#X obj 47 29 inlet;
#X obj 39 272 outlet;
#X obj 42 201 list trim;
#X text 157 4 change / to list separator;
#X obj 175 88 regexdepauvre = /;
#X obj 175 58 list split 1;
#X obj 228 33 list store;
#X obj 173 191 oscformat;
#X obj 172 140 list trim;
#X obj 172 216 oscparse;
#X obj 173 115 list prepend set;
#X obj 173 164 t b a;
#X obj 172 240 list trim;
#X obj 327 75 route UID;
#X obj 451 78 list prepend set;
#X obj 574 78 list trim;
#X symbolatom 646 78 10 0 0 0 - - -;
#X obj 451 109 list prepend set;
#X obj 574 109 list trim;
#X symbolatom 646 109 10 0 0 0 - - -;
#X obj 328 106 route BTN_state;
#X obj 324 143 route ETH_status;
#X obj 326 176 route My_IP;
#X obj 322 210 route Listening;
#X obj 322 243 route Output;
#X obj 453 143 list prepend set;
#X obj 576 143 list trim;
#X symbolatom 648 143 10 0 0 0 - - -;
#X obj 453 174 list prepend set;
#X obj 576 174 list trim;
#X symbolatom 648 174 10 0 0 0 - - -;
#X obj 449 210 list prepend set;
#X obj 572 210 list trim;
#X symbolatom 644 210 10 0 0 0 - - -;
#X obj 449 241 list prepend set;
#X obj 572 241 list trim;
#X symbolatom 644 241 10 0 0 0 - - -;
#X obj 42 232 t a a;
#X connect 0 0 2 0;
#X connect 1 0 4 0;
#X connect 2 0 7 0;
#X connect 3 0 1 0;
#X connect 4 0 0 0;
#X connect 4 1 0 0;
#X connect 5 0 3 0;
#X connect 7 0 42 0;
#X connect 9 0 15 0;
#X connect 10 0 9 0;
#X connect 10 1 11 0;
#X connect 11 0 10 0;
#X connect 12 0 14 0;
#X connect 13 0 16 0;
#X connect 14 0 17 0;
#X connect 15 0 13 0;
#X connect 16 0 12 0;
#X connect 16 1 12 0;
#X connect 17 0 18 0;
#X connect 18 0 19 0;
#X connect 18 1 25 0;
#X connect 19 0 20 0;
#X connect 20 0 21 0;
#X connect 22 0 23 0;
#X connect 23 0 24 0;
#X connect 25 0 22 0;
#X connect 25 1 26 0;
#X connect 26 0 30 0;
#X connect 26 1 27 0;
#X connect 27 0 33 0;
#X connect 27 1 28 0;
#X connect 28 0 36 0;
#X connect 28 1 29 0;
#X connect 29 0 39 0;
#X connect 30 0 31 0;
#X connect 31 0 32 0;
#X connect 33 0 34 0;
#X connect 34 0 35 0;
#X connect 36 0 37 0;
#X connect 37 0 38 0;
#X connect 39 0 40 0;
#X connect 40 0 41 0;
#X connect 42 0 6 0;
#X connect 42 1 10 0;
#X restore 35 411 pd parse_boot_report;
#X obj 137 286 bng 15 250 50 0 empty empty empty 17 7 0 10 -262144
-1 -1;
#X msg 39 54 disconnect \, connect 10.0.0.230 52021 52022;
#X text 349 56 adresse send port receive port;
#X obj 35 441 print boot_report :;
#X obj 83 207 oscformat led;
#X obj 87 179 hsl 128 15 0 1 0 0 empty empty empty -2 -8 0 10 -262144
-1 -1 0 1;
#X obj 39 27 loadbang;
#X obj 136 389 print incomming;
#X obj 85 155 line 0 10;
#X msg 145 125 0 1000;
#X msg 85 125 1 1000;
#X obj 85 78 tgl 15 0 empty empty empty 17 7 0 10 -262144 -1 -1 0 1
;
#X obj 84 100 sel 1 0;
#X text 270 236 led intensity;
#X text 266 80 toggle led;
#X obj 272 319 route agir;
#X obj 293 341 route btn_state;
#X obj 230 111 metro 10;
#X obj 226 89 tgl 15 0 empty empty empty 17 7 0 10 -262144 -1 -1 0
1;
#X obj 379 113 v i_\$0;
#X floatatom 317 112 5 0 0 0 - - -;
#X obj 231 140 expr (sin(i_\$0/($f2*1000))+1)/2 \; i_\$0=i_\$0+1;
#X obj 395 76 loadbang;
#X msg 364 74 0.1;
#X obj 291 395 sel 0 1;
#X obj 309 435 bng 15 250 50 0 empty empty empty 17 7 0 10 -262144
-1 -1;
#X obj 293 369 change;
#X connect 0 1 3 0;
#X connect 0 1 7 0;
#X connect 1 0 2 0;
#X connect 2 0 0 0;
#X connect 3 0 5 0;
#X connect 4 0 6 0;
#X connect 4 1 14 0;
#X connect 4 1 22 0;
#X connect 5 0 4 0;
#X connect 6 0 10 0;
#X connect 8 0 0 0;
#X connect 11 0 1 0;
#X connect 12 0 11 0;
#X connect 13 0 8 0;
#X connect 15 0 12 0;
#X connect 16 0 15 0;
#X connect 17 0 15 0;
#X connect 18 0 19 0;
#X connect 19 0 17 0;
#X connect 19 1 16 0;
#X connect 22 0 23 0;
#X connect 23 0 33 0;
#X connect 24 0 28 0;
#X connect 25 0 24 0;
#X connect 27 0 28 1;
#X connect 28 0 12 0;
#X connect 29 0 30 0;
#X connect 30 0 27 0;
#X connect 31 1 32 0;
#X connect 33 0 31 0;
